<svg id="Group_4" data-name="Group 4" xmlns="http://www.w3.org/2000/svg" width="33.613" height="33.655" viewBox="0 0 33.613 33.655">
  <g id="Group_68" data-name="Group 68">
    <path id="Path_106" data-name="Path 106" d="M592.07,6129.879c0-4.768,0-9.536-.07-14.3.07-.491.14-1.052.21-1.543.631-3.856,2.735-6.521,6.521-7.642a13.477,13.477,0,0,1,4.067-.491h11.849a17.129,17.129,0,0,1,2.664.21,9.054,9.054,0,0,1,8.063,8.273c.21,2.243.21,4.487.21,6.731a93.057,93.057,0,0,1-.21,9.886,9.022,9.022,0,0,1-7.082,8.133,25.23,25.23,0,0,1-3.225.421h-12.55c-.7-.07-1.472-.14-2.174-.21a8.994,8.994,0,0,1-7.923-6.591C592.28,6131.7,592.14,6130.791,592.07,6129.879Zm3.085-7.222c.07,2.524,0,5.118.14,7.642a5.858,5.858,0,0,0,4.908,5.68,16.74,16.74,0,0,0,3.225.28c4.207,0,8.414.141,12.621-.14a6.6,6.6,0,0,0,4.908-2.244,7,7,0,0,0,1.332-4c.21-2.8.07-5.609.07-8.414a59.3,59.3,0,0,0-.21-7.082,5.732,5.732,0,0,0-4.7-5.118,11.558,11.558,0,0,0-2.244-.28c-4.7,0-9.4-.141-14.093.14a5.94,5.94,0,0,0-5.89,5.96C595.085,6117.609,595.225,6120.134,595.155,6122.658Z" transform="translate(-592 -6105.9)" fill="#001627"/>
    <path id="Path_107" data-name="Path 107" d="M620.888,6126.064a8.694,8.694,0,0,1-17.388-.07,8.694,8.694,0,1,1,17.388.07Zm-3.155-.07a5.476,5.476,0,0,0-5.469-5.469,5.6,5.6,0,0,0-5.539,5.54,5.536,5.536,0,0,0,5.539,5.468A5.447,5.447,0,0,0,617.733,6125.995Z" transform="translate(-595.437 -6109.307)" fill="#001627"/>
    <path id="Path_108" data-name="Path 108" d="M629.837,6116.033a2.009,2.009,0,0,1-2.033,2.1,2.051,2.051,0,0,1-2.1-2.033,2.157,2.157,0,0,1,2.1-2.1A2.034,2.034,0,0,1,629.837,6116.033Z" transform="translate(-602.071 -6108.32)" fill="#001627"/>
  </g>
</svg>
