<svg xmlns="http://www.w3.org/2000/svg" width="112.331" height="73.963" viewBox="0 0 112.331 73.963">
  <g id="Group_3" data-name="Group 3" transform="translate(-146.076 -168.601)">
    <path id="Path_1" data-name="Path 1" d="M153.668,214.76v8.134H166.63v6.063H153.668v13.607h-7.592v-34.5h22.032v6.7Z" fill="#171719"/>
    <g id="Group_2" data-name="Group 2">
      <g id="Group_1" data-name="Group 1">
        <path id="Path_2" data-name="Path 2" d="M171.509,180.281c0,6.655-5.469,11.734-13.7,11.734h-4.486V203.1h-7.245V168.6h11.731C166.04,168.6,171.509,173.529,171.509,180.281Zm-7.293.15c0-3.4-2.713-5.472-6.756-5.472h-4.139v10.894h4.139C161.5,185.9,164.216,183.929,164.216,180.431Z" fill="#171719"/>
        <path id="Path_3" data-name="Path 3" d="M196.991,196.449H180.48l-2.911,6.656H169.88l15.874-34.5h5.915l15.97,34.5H199.95Zm-2.709-6.162-5.572-12.568-5.521,12.568Z" fill="#171719"/>
        <path id="Path_4" data-name="Path 4" d="M240.123,202.364l-.4.741H231.79l-10.106-11.536h-2.808V203.1H211.63V168.6H224.1c8.23,0,13.7,4.581,13.7,11.385,0,4.979-3.106,9.07-8.181,10.746Zm-21.247-16.511h4.386c4.536.048,7.2-2.366,7.2-5.521,0-3.107-2.661-5.373-7.2-5.373h-4.386Z" fill="#171719"/>
      </g>
      <path id="Path_5" data-name="Path 5" d="M194.231,235.908H177.719l-2.907,6.656H167.12l15.873-34.5h5.916l15.969,34.5H197.19Zm-2.709-6.162-5.573-12.568-5.521,12.568Z" fill="#171719"/>
      <path id="Path_6" data-name="Path 6" d="M258.407,214.959H246.971v27.6h-7.593v-27.6H227.942v-6.9h30.465Z" fill="#171719"/>
      <rect id="Rectangle_1" data-name="Rectangle 1" width="7.566" height="34.188" transform="translate(211.975 208.337)" fill="#171719"/>
    </g>
  </g>
</svg>
